# Blender v2.62 (sub 0) OBJ File: 'ros_groovy.blend'
# www.blender.org
mtllib ros_fuerte.mtl
v 0.105000 0.148500 -0.000500
v 0.105000 -0.148500 -0.000500
v -0.105000 -0.148500 -0.000500
v -0.105000 0.148500 -0.000500
v 0.105000 0.148500 0.000500
v 0.105000 -0.148500 0.000500
v -0.105000 -0.148500 0.000500
v -0.105000 0.148500 0.000500
vt 0.116863 0.059746
vt 0.116976 0.096562
vt 0.080160 0.096675
vt 0.080047 0.059859
vt 1.000014 1.000389
vt -0.001088 1.000321
vt -0.000136 -0.000292
vt 1.000265 -0.000290
vt 0.153792 0.059746
vt 0.153905 0.096562
vt 0.117089 0.096675
vt 0.116976 0.059859
vt 0.043230 0.096675
vt 0.043117 0.059859
vt 0.079934 0.059746
vt 0.080047 0.096562
vt 0.080047 0.059633
vt 0.043230 0.059746
vt 0.043117 0.022929
vt 0.079934 0.022816
vt 0.080047 0.022929
vt 0.116863 0.022816
vt 0.116976 0.059633
vt 0.080160 0.059746
vn -0.000000 -0.000000 -1.000000
vn 0.000000 0.000000 1.000000
vn 1.000000 -0.000000 0.000007
vn -0.000000 -1.000000 -0.000037
vn -1.000000 0.000000 -0.000026
vn 0.000000 1.000000 0.000060
usemtl _ros_fuerte.jpg
s off
f 1/1/1 2/2/1 3/3/1
f 1/1/1 3/3/1 4/4/1
f 5/5/2 8/6/2 7/7/2
f 5/5/2 7/7/2 6/8/2
f 1/9/3 5/10/3 6/11/3
f 1/9/3 6/11/3 2/12/3
f 2/13/4 6/14/4 7/15/4
f 2/13/4 7/15/4 3/16/4
f 3/17/5 7/18/5 8/19/5
f 3/17/5 8/19/5 4/20/5
f 5/21/6 1/22/6 4/23/6
f 5/21/6 4/23/6 8/24/6
